<svg width="130" height="52" viewBox="0 0 130 52" fill="none" xmlns="http://www.w3.org/2000/svg">
<g clip-path="url(#clip0_15360_154973)">
<mask id="mask0_15360_154973" style="mask-type:luminance" maskUnits="userSpaceOnUse" x="0" y="0" width="130" height="52">
<path d="M130 0H0V52H130V0Z" fill="white"/>
</mask>
<g mask="url(#mask0_15360_154973)">
<path d="M2.68591 1.99085C3.02722 1.98608 3.36604 2.04936 3.68236 2.17695C3.99867 2.30454 4.28607 2.49385 4.52757 2.73371C4.7788 2.97352 4.97774 3.26213 5.11205 3.58161C5.24636 3.90109 5.31317 4.24462 5.30832 4.59085V13C6.93955 11.5613 9.33035 10.8432 12.4807 10.8457C14.1217 10.8222 15.7502 11.133 17.2657 11.7591C18.7813 12.3851 20.1519 13.313 21.2931 14.4857C22.4739 15.6211 23.4083 16.9849 24.0386 18.4932C24.6689 20.0014 24.9817 21.6221 24.9577 23.2551C24.9791 24.8851 24.6651 26.5022 24.0349 28.0071C23.4047 29.512 22.4716 30.8728 21.2931 32.006C20.1534 33.1814 18.7833 34.1119 17.2676 34.7399C15.7518 35.3679 14.1226 35.6801 12.4807 35.6571C10.8429 35.6814 9.21738 35.3719 7.70439 34.7478C6.19139 34.1237 4.82293 33.1982 3.68332 32.0283C2.50078 30.9018 1.56365 29.5458 0.930038 28.0443C0.29643 26.5428 -0.0201326 24.9279 -1.32966e-05 23.2997V4.59828C-0.00397676 4.25217 0.0632325 3.9089 0.19749 3.58955C0.331748 3.27019 0.530222 2.98148 0.780734 2.74114C1.02074 2.50084 1.30664 2.31068 1.62163 2.18183C1.93662 2.05298 2.27434 1.98805 2.61493 1.99085H2.68591ZM12.4807 16.1497C11.5359 16.1448 10.5994 16.3265 9.72577 16.6843C8.8521 17.0421 8.05861 17.5688 7.39135 18.234C6.72409 18.8992 6.19636 19.6895 5.83878 20.5591C5.48119 21.4287 5.30089 22.3603 5.30832 23.2997C5.30387 24.2376 5.48633 25.1671 5.84515 26.0346C6.20398 26.902 6.73207 27.6902 7.39892 28.3536C8.06578 29.017 8.8582 29.5424 9.73043 29.8997C10.6027 30.2569 11.5374 30.4388 12.4807 30.4349C13.4258 30.4498 14.3638 30.2719 15.237 29.9122C16.1102 29.5526 16.8999 29.0187 17.5575 28.3437C18.9018 27.0016 19.6565 25.1846 19.6565 23.2904C19.6565 21.3963 18.9018 19.5793 17.5575 18.2371C16.9002 17.5631 16.1109 17.0301 15.2384 16.671C14.3659 16.312 13.4286 16.1346 12.4845 16.1497" fill="#3549D1"/>
<path d="M29.5563 7.95599C29.1606 7.96189 28.7679 7.88715 28.4023 7.7364C28.0367 7.58564 27.7061 7.36206 27.4307 7.07942C27.1464 6.80494 26.9215 6.47553 26.7699 6.11145C26.6182 5.74736 26.5431 5.35629 26.5491 4.96228C26.5449 4.57181 26.6209 4.1846 26.7725 3.82438C26.9241 3.46415 27.1481 3.13851 27.4307 2.86742C27.7084 2.59059 28.0382 2.37095 28.4013 2.22109C28.7645 2.07122 29.1538 1.99408 29.547 1.99408C29.9402 1.99408 30.3295 2.07122 30.6926 2.22109C31.0558 2.37095 31.3856 2.59059 31.6632 2.86742C31.9538 3.13362 32.1845 3.45784 32.3403 3.81884C32.4961 4.17984 32.5734 4.56949 32.5672 4.96228C32.5749 5.35856 32.4984 5.75199 32.3426 6.11682C32.1868 6.48166 31.9553 6.80968 31.6632 7.07942C31.3908 7.36082 31.0634 7.58378 30.701 7.73453C30.3387 7.88529 29.9491 7.96066 29.5563 7.95599ZM29.5787 10.7343C29.9215 10.7274 30.2619 10.7934 30.5769 10.9279C30.892 11.0624 31.1745 11.2623 31.4055 11.5143C31.6534 11.7515 31.85 12.0366 31.983 12.3522C32.116 12.6677 32.1826 13.007 32.1787 13.3491V32.7748C32.17 33.4617 31.8917 34.118 31.4032 34.6037C30.9147 35.0895 30.2546 35.3662 29.5638 35.3748H29.5227C29.1776 35.3791 28.8354 35.3128 28.5173 35.1799C28.1992 35.0469 27.912 34.8503 27.6736 34.6023C27.4222 34.3716 27.2232 34.0903 27.0899 33.7771C26.9565 33.4639 26.8919 33.126 26.9003 32.786V13.338C26.9071 12.6505 27.1848 11.9931 27.6737 11.507C28.1626 11.0209 28.8238 10.7448 29.5152 10.738L29.5787 10.7343Z" fill="#3549D1"/>
<path d="M60.8385 7.95599C60.4428 7.96189 60.05 7.88715 59.6845 7.7364C59.3189 7.58564 58.9883 7.36206 58.7129 7.07942C58.428 6.80534 58.2028 6.47601 58.0511 6.11183C57.8995 5.74765 57.8246 5.35638 57.8313 4.96228C57.8262 4.57169 57.9018 4.18421 58.0534 3.82386C58.2051 3.46352 58.4295 3.13798 58.7129 2.86742C58.9905 2.59059 59.3204 2.37095 59.6835 2.22109C60.0467 2.07122 60.436 1.99408 60.8292 1.99408C61.2223 1.99408 61.6117 2.07122 61.9748 2.22109C62.3379 2.37095 62.6678 2.59059 62.9454 2.86742C63.2359 3.13362 63.4667 3.45784 63.6224 3.81884C63.7782 4.17984 63.8556 4.56949 63.8494 4.96228C63.8571 5.35856 63.7805 5.75199 63.6248 6.11682C63.469 6.48166 63.2375 6.80968 62.9454 7.07942C62.673 7.36082 62.3456 7.58378 61.9832 7.73453C61.6208 7.88529 61.2313 7.96066 60.8385 7.95599ZM60.8609 10.7343C61.2037 10.7274 61.544 10.7934 61.8591 10.9279C62.1741 11.0624 62.4566 11.2623 62.6876 11.5143C62.9356 11.7515 63.1322 12.0366 63.2651 12.3522C63.3981 12.6677 63.4648 13.007 63.4609 13.3491V32.7748C63.4522 33.4617 63.1739 34.118 62.6854 34.6037C62.1969 35.0895 61.5368 35.3662 60.846 35.3748H60.8049C60.4598 35.3791 60.1176 35.3128 59.7995 35.1799C59.4813 35.0469 59.1941 34.8503 58.9557 34.6023C58.7044 34.3716 58.5054 34.0903 58.3721 33.7771C58.2387 33.4639 58.1741 33.126 58.1825 32.786V13.338C58.1893 12.6505 58.467 11.9931 58.9559 11.507C59.4448 11.0209 60.106 10.7448 60.7974 10.738L60.8609 10.7343Z" fill="#3549D1"/>
<path d="M42.1267 30.0226L52.8218 30.0448C53.1565 30.0397 53.4887 30.1029 53.7978 30.2307C54.1069 30.3585 54.3863 30.5481 54.6187 30.7877C54.8605 31.0219 55.0516 31.3029 55.1801 31.6134C55.3086 31.9239 55.3718 32.2572 55.3658 32.5928V32.6337C55.3719 32.9699 55.3087 33.3038 55.1802 33.6149C55.0518 33.926 54.8607 34.2076 54.6187 34.4426C54.3863 34.6822 54.1069 34.8718 53.7978 34.9995C53.4887 35.1273 53.1565 35.1906 52.8218 35.1854H39.0187C37.3576 35.1854 36.1958 34.4079 35.5333 32.8528C35.2942 32.3312 35.1669 31.7658 35.1598 31.1926C35.1727 30.7008 35.2861 30.2167 35.4928 29.7698C35.6996 29.3229 35.9955 28.9224 36.3626 28.5926C37.7448 27.1663 39.8442 24.981 42.6609 22.0368C45.1289 19.4591 47.0179 17.4906 48.3279 16.1311H38.5554C38.2169 16.1399 37.8803 16.0783 37.5671 15.9504C37.2538 15.8225 36.9708 15.631 36.7362 15.3883C36.4975 15.1555 36.3083 14.8774 36.18 14.5705C36.0516 14.2636 35.9867 13.9341 35.9891 13.6017V13.5386C35.9867 13.2062 36.0516 12.8767 36.18 12.5698C36.3083 12.2628 36.4975 11.9847 36.7362 11.752C36.9707 11.509 37.2536 11.3175 37.5669 11.1896C37.8802 11.0616 38.2169 11.0002 38.5554 11.0091H51.3201C52.0856 10.9602 52.8469 11.1553 53.4932 11.5661C54.1395 11.9769 54.6371 12.582 54.9138 13.2934C55.1541 13.8147 55.2814 14.3803 55.2873 14.9537C55.2765 15.4462 55.1638 15.9313 54.9562 16.3786C54.7486 16.8259 54.4506 17.2259 54.0807 17.5537L42.1267 30.0188" fill="#3549D1"/>
<path d="M78.2615 42.2537C80.0807 42.2537 82.1876 41.7634 83.5885 40.2814C86.11 37.6183 85.475 33.8223 85.475 31.8983C83.8189 34.2829 81.4144 35.4751 78.2615 35.4751C76.6101 35.4992 74.9712 35.1867 73.446 34.5568C71.9207 33.927 70.5414 32.9931 69.3931 31.8129C68.2061 30.6711 67.2668 29.2997 66.6333 27.7831C65.9999 26.2666 65.6855 24.6371 65.7098 22.9951C65.6853 21.3532 65.9995 19.7236 66.633 18.207C67.2665 16.6905 68.2059 15.3191 69.3931 14.1774C70.5546 13.0184 71.9344 12.0984 73.4537 11.47C74.973 10.8415 76.602 10.517 78.2475 10.5149C79.893 10.5129 81.5228 10.8333 83.0437 11.4579C84.5646 12.0825 85.9468 12.9991 87.1112 14.1551C88.3015 15.2909 89.2445 16.6576 89.882 18.1705C90.5194 19.6835 90.8376 21.3104 90.8169 22.9506V31.8983C90.8169 35.282 90.3948 40.6751 87.3241 43.7283C84.9084 46.1127 81.6646 47.4847 78.2615 47.5614C73.3678 47.5614 69.7007 45.6696 67.26 41.886C66.9809 41.4768 66.8289 40.995 66.823 40.5006C66.8229 40.2042 66.8747 39.9101 66.9761 39.6314C67.0899 39.2478 67.296 38.8975 67.5765 38.6108C67.8571 38.3241 68.2036 38.1096 68.5862 37.986L68.6534 37.9637C68.9881 37.8392 69.3421 37.7739 69.6994 37.7706C70.5138 37.7706 71.1937 38.1754 71.7465 38.9814C73.1835 41.1654 75.3552 42.2562 78.2615 42.2537ZM85.475 22.8651C85.4185 20.9897 84.6251 19.2109 83.265 17.9103C81.9049 16.6097 80.0863 15.8908 78.1993 15.9079C76.3123 15.9249 74.5072 16.6764 73.171 18.0013C71.8348 19.3262 71.074 21.119 71.0517 22.9951C71.0298 23.9505 71.2002 24.9006 71.5528 25.7896C71.9054 26.6786 72.4331 27.4885 73.1049 28.1719C73.7768 28.8553 74.5792 29.3982 75.465 29.769C76.3508 30.1397 77.3022 30.3306 78.2634 30.3306C79.2245 30.3306 80.1759 30.1397 81.0617 29.769C81.9475 29.3982 82.75 28.8553 83.4218 28.1719C84.0936 27.4885 84.6213 26.6786 84.9739 25.7896C85.3265 24.9006 85.4969 23.9505 85.475 22.9951V22.8651Z" fill="#3549D1"/>
<path d="M111.408 4.23056C113.854 4.196 116.282 4.65961 118.541 5.59286C120.801 6.5261 122.844 7.90924 124.546 9.65713C126.303 11.349 127.693 13.3804 128.631 15.6262C129.569 17.8721 130.035 20.285 130 22.7166C130.036 25.1483 129.571 27.5617 128.633 29.8078C127.695 32.0539 126.304 34.085 124.546 35.776C122.823 37.4948 120.776 38.8586 118.521 39.7891C116.267 40.7196 113.85 41.1986 111.41 41.1986C108.969 41.1986 106.552 40.7196 104.298 39.7891C102.044 38.8586 99.9963 37.4948 98.2733 35.776C96.5152 34.085 95.1243 32.0539 94.1862 29.8078C93.2482 27.5617 92.783 25.1483 92.8192 22.7166C92.7845 20.285 93.2504 17.8721 94.1884 15.6262C95.1263 13.3804 96.5165 11.349 98.2733 9.65713C99.9749 7.91037 102.018 6.52819 104.277 5.5956C106.535 4.66302 108.962 4.19974 111.408 4.23427M111.408 9.51227C109.645 9.48289 107.895 9.81279 106.266 10.4816C104.637 11.1505 103.162 12.144 101.934 13.4011C100.68 14.628 99.6903 16.0958 99.025 17.7152C98.3596 19.3345 98.0327 21.0716 98.0641 22.8206C98.0561 24.5651 98.3959 26.2938 99.0637 27.9071C99.7314 29.5203 100.714 30.986 101.955 32.2196C103.195 33.4532 104.669 34.4301 106.292 35.0941C107.914 35.7581 109.653 36.0959 111.408 36.088C113.164 36.1151 114.908 35.7841 116.531 35.1152C118.154 34.4464 119.622 33.4539 120.844 32.1991C122.109 30.9854 123.11 29.5266 123.785 27.9128C124.461 26.299 124.796 24.5646 124.77 22.8168C124.8 21.0644 124.468 19.3244 123.796 17.7043C123.123 16.0842 122.124 14.6184 120.859 13.3974C119.635 12.1408 118.165 11.1473 116.539 10.4784C114.913 9.80945 113.167 9.47937 111.408 9.50856" fill="#3549D1"/>
<path d="M111.408 50.0091C110.918 50.0063 110.437 49.8839 110.006 49.6528C109.575 49.4216 109.208 49.0888 108.937 48.6836C108.666 48.2783 108.499 47.8131 108.451 47.3287C108.403 46.8443 108.476 46.3556 108.662 45.9056C108.849 45.4556 109.144 45.058 109.521 44.7478C109.898 44.4377 110.346 44.2244 110.826 44.1268C111.305 44.0291 111.802 44.0501 112.271 44.1879C112.741 44.3256 113.169 44.576 113.518 44.9169C113.804 45.1894 114.032 45.5166 114.187 45.8788C114.343 46.2411 114.423 46.6309 114.423 47.0247C114.423 47.4186 114.343 47.8084 114.187 48.1706C114.032 48.5329 113.804 48.8601 113.518 49.1326C113.245 49.4137 112.917 49.6365 112.554 49.7872C112.191 49.9379 111.801 50.0134 111.408 50.0091Z" fill="#18D68F"/>
</g>
</g>
<defs>
<clipPath id="clip0_15360_154973">
<rect width="130" height="52" fill="white"/>
</clipPath>
</defs>
</svg>
